<svg width="59" height="62" viewBox="0 0 59 62" fill="none" xmlns="http://www.w3.org/2000/svg">
<path d="M21.1057 30.31C19.112 29.7758 18.1391 28.0905 18.6733 26.0969L24.6385 3.83427L15.9993 1.5194C14.3379 1.07423 13.074 1.80396 12.6288 3.46535L0.965405 46.9937C0.609271 48.3228 1.24997 49.919 2.91136 50.3642L15.5379 53.7475L21.7703 30.488L21.1057 30.31Z" fill="#8CFCC6"/>
<path d="M35.7259 34.2274C33.7323 33.6932 32.7593 32.0079 33.2935 30.0143L39.2587 7.75166L32.9455 6.06002L26.9802 28.3226C26.446 30.3163 24.7608 31.2893 22.7671 30.7551L21.7703 30.488L15.5379 53.7474L30.1581 57.6649L36.3905 34.4054L35.7259 34.2274Z" fill="#FFABAB"/>
<path d="M55.8726 12.2033L47.2334 9.88847L41.2682 32.1511C40.734 34.1447 39.0487 35.1177 37.0551 34.5835L36.3905 34.4054L30.1582 57.6649L42.7847 61.0482C44.1138 61.4043 45.71 60.7636 46.1552 59.1022L57.8186 15.5738C58.2638 13.9124 57.534 12.6485 55.8726 12.2033Z" fill="#A0F9F4"/>
</svg>
