<svg width="64" height="52" viewBox="0 0 64 52" fill="none" xmlns="http://www.w3.org/2000/svg">
<path d="M43.9051 34.9915C34.5131 39.083 23.7069 37.6116 21.1007 31.0614L27.2905 45.7993C29.8967 52.022 40.3215 53.9871 50.0948 49.7295C59.8681 45.4718 65.7321 36.9566 63.1259 30.4064L56.9361 15.6685C59.8681 22.2186 53.2971 30.9 43.9051 34.9915Z" fill="#A0F9F4"/>
<path d="M43.9251 35.0139C53.8546 30.7553 59.7292 22.1779 57.0464 15.8558C54.3635 9.53365 44.1392 7.86083 34.2097 12.1194C24.2802 16.378 18.4056 24.9554 21.0884 31.2776C23.7713 37.5997 33.9956 39.2725 43.9251 35.0139Z" fill="#FFABAB"/>
<path d="M33.9529 26H33.6443L0.925989 13.3397C0.308663 13.0232 0 12.3902 0 11.7572C0.308663 11.1242 0.925989 10.8077 1.54331 11.1242L34.2616 23.7844C34.8789 24.101 35.1876 24.734 34.8789 25.367C34.8789 25.6835 34.2616 26 33.9529 26Z" fill="#8CFCC6"/>
<path d="M9.34454 9C8.67227 9 8.33613 8.68965 8 8.06896C8 7.44828 8.33613 6.82759 9.0084 6.82759L46.6555 0C47.3277 0 48 0.310345 48 0.931035C48 1.55172 47.6639 2.17241 46.9916 2.17241L9.34454 9C9.68067 9 9.68067 9 9.34454 9Z" fill="#8CFCC6"/>
</svg>
