<svg width="47" height="66" viewBox="0 0 47 66" fill="none" xmlns="http://www.w3.org/2000/svg">
<g clip-path="url(#clip0_1371_3944)">
<path d="M20.757 1.87924L22.9973 1.74996C31.5822 1.25455 38.955 7.83423 39.4513 16.4339L40.7693 39.2743C40.9493 42.3925 38.5681 45.07 35.4553 45.2496L13.3855 46.5232C10.2726 46.7028 7.59929 44.317 7.41935 41.1988L6.10131 18.3585C5.60507 9.75874 12.172 2.37465 20.757 1.87924Z" fill="#FFABAB"/>
<path d="M20.6041 10.3047L24.1182 10.1019C28.0783 9.87339 31.4792 12.9085 31.7081 16.8753L34.3711 63.0227C34.3788 63.1571 34.2763 63.2724 34.1422 63.2801L16.7638 64.283C16.6297 64.2907 16.5145 64.1879 16.5067 64.0536L13.8437 17.9062C13.6148 13.9393 16.644 10.5332 20.6041 10.3047Z" fill="#A0F9F4"/>
<path d="M4.25054 28.0303L9.05228 27.7533C10.3335 27.6793 11.312 26.579 11.238 25.2956C11.1639 24.0122 10.0653 23.0318 8.78409 23.1057L3.98235 23.3828C2.70116 23.4567 1.72259 24.557 1.79665 25.8404C1.87071 27.1238 2.96936 28.1043 4.25054 28.0303Z" fill="#8CFCC6"/>
<path d="M4.71685 36.1104L9.51859 35.8333C10.7998 35.7594 11.7783 34.6591 11.7043 33.3757C11.6302 32.0923 10.5316 31.1118 9.25039 31.1858L4.44866 31.4629C3.16747 31.5368 2.1889 32.6371 2.26296 33.9205C2.33702 35.2039 3.43567 36.1844 4.71685 36.1104Z" fill="#8CFCC6"/>
<path d="M37.3118 22.0689L42.1136 21.7918C43.3947 21.7179 44.3733 20.6176 44.2993 19.3342C44.2252 18.0508 43.1265 17.0703 41.8454 17.1443L37.0436 17.4214C35.7624 17.4953 34.7839 18.5956 34.8579 19.879C34.932 21.1624 36.0306 22.1429 37.3118 22.0689Z" fill="#8CFCC6"/>
<path d="M38.2444 38.2291L43.0462 37.952C44.3274 37.878 45.3059 36.7777 45.2319 35.4943C45.1578 34.211 44.0592 33.2305 42.778 33.3044L37.9762 33.5815C36.6951 33.6555 35.7165 34.7558 35.7905 36.0392C35.8646 37.3226 36.9633 38.303 38.2444 38.2291Z" fill="#8CFCC6"/>
<path d="M37.7781 30.149L42.5799 29.8719C43.8611 29.798 44.8396 28.6976 44.7656 27.4143C44.6915 26.1309 43.5929 25.1504 42.3117 25.2244L37.5099 25.5014C36.2287 25.5754 35.2502 26.6757 35.3242 27.9591C35.3983 29.2425 36.4969 30.2229 37.7781 30.149Z" fill="#8CFCC6"/>
</g>
<defs>
<clipPath id="clip0_1371_3944">
<rect width="42.8069" height="62.07" fill="white" transform="translate(0.481445 3.04932) rotate(-3.30268)"/>
</clipPath>
</defs>
</svg>
