<?xml version="1.0" encoding="UTF-8" standalone="no"?>
<svg
   width="59"
   height="62"
   viewBox="0 0 59 62"
   fill="none"
   version="1.1"
   id="svg8"
   sodipodi:docname="6.svg"
   xml:space="preserve"
   inkscape:version="1.2.2 (732a01da63, 2022-12-09)"
   xmlns:inkscape="http://www.inkscape.org/namespaces/inkscape"
   xmlns:sodipodi="http://sodipodi.sourceforge.net/DTD/sodipodi-0.dtd"
   xmlns="http://www.w3.org/2000/svg"
   xmlns:svg="http://www.w3.org/2000/svg"><defs
     id="defs12"><filter
       id="mask-powermask-path-effect1608_inverse"
       inkscape:label="filtermask-powermask-path-effect1608"
       style="color-interpolation-filters:sRGB"
       height="100"
       width="100"
       x="-50"
       y="-50"><feColorMatrix
         id="mask-powermask-path-effect1608_primitive1"
         values="1"
         type="saturate"
         result="fbSourceGraphic" /><feColorMatrix
         id="mask-powermask-path-effect1608_primitive2"
         values="-1 0 0 0 1 0 -1 0 0 1 0 0 -1 0 1 0 0 0 1 0 "
         in="fbSourceGraphic" /></filter><filter
       id="mask-powermask-path-effect1638_inverse"
       inkscape:label="filtermask-powermask-path-effect1638"
       style="color-interpolation-filters:sRGB"
       height="100"
       width="100"
       x="-50"
       y="-50"><feColorMatrix
         id="mask-powermask-path-effect1638_primitive1"
         values="1"
         type="saturate"
         result="fbSourceGraphic" /><feColorMatrix
         id="mask-powermask-path-effect1638_primitive2"
         values="-1 0 0 0 1 0 -1 0 0 1 0 0 -1 0 1 0 0 0 1 0 "
         in="fbSourceGraphic" /></filter><filter
       id="mask-powermask-path-effect1643_inverse"
       inkscape:label="filtermask-powermask-path-effect1643"
       style="color-interpolation-filters:sRGB"
       height="100"
       width="100"
       x="-50"
       y="-50"><feColorMatrix
         id="mask-powermask-path-effect1643_primitive1"
         values="1"
         type="saturate"
         result="fbSourceGraphic" /><feColorMatrix
         id="mask-powermask-path-effect1643_primitive2"
         values="-1 0 0 0 1 0 -1 0 0 1 0 0 -1 0 1 0 0 0 1 0 "
         in="fbSourceGraphic" /></filter><filter
       id="mask-powermask-path-effect1648_inverse"
       inkscape:label="filtermask-powermask-path-effect1648"
       style="color-interpolation-filters:sRGB"
       height="100"
       width="100"
       x="-50"
       y="-50"><feColorMatrix
         id="mask-powermask-path-effect1648_primitive1"
         values="1"
         type="saturate"
         result="fbSourceGraphic" /><feColorMatrix
         id="mask-powermask-path-effect1648_primitive2"
         values="-1 0 0 0 1 0 -1 0 0 1 0 0 -1 0 1 0 0 0 1 0 "
         in="fbSourceGraphic" /></filter><filter
       id="mask-powermask-path-effect1680_inverse"
       inkscape:label="filtermask-powermask-path-effect1680"
       style="color-interpolation-filters:sRGB"
       height="100"
       width="100"
       x="-50"
       y="-50"><feColorMatrix
         id="mask-powermask-path-effect1680_primitive1"
         values="1"
         type="saturate"
         result="fbSourceGraphic" /><feColorMatrix
         id="mask-powermask-path-effect1680_primitive2"
         values="-1 0 0 0 1 0 -1 0 0 1 0 0 -1 0 1 0 0 0 1 0 "
         in="fbSourceGraphic" /></filter><filter
       id="mask-powermask-path-effect1685_inverse"
       inkscape:label="filtermask-powermask-path-effect1685"
       style="color-interpolation-filters:sRGB"
       height="100"
       width="100"
       x="-50"
       y="-50"><feColorMatrix
         id="mask-powermask-path-effect1685_primitive1"
         values="1"
         type="saturate"
         result="fbSourceGraphic" /><feColorMatrix
         id="mask-powermask-path-effect1685_primitive2"
         values="-1 0 0 0 1 0 -1 0 0 1 0 0 -1 0 1 0 0 0 1 0 "
         in="fbSourceGraphic" /></filter><filter
       id="mask-powermask-path-effect1690_inverse"
       inkscape:label="filtermask-powermask-path-effect1690"
       style="color-interpolation-filters:sRGB"
       height="100"
       width="100"
       x="-50"
       y="-50"><feColorMatrix
         id="mask-powermask-path-effect1690_primitive1"
         values="1"
         type="saturate"
         result="fbSourceGraphic" /><feColorMatrix
         id="mask-powermask-path-effect1690_primitive2"
         values="-1 0 0 0 1 0 -1 0 0 1 0 0 -1 0 1 0 0 0 1 0 "
         in="fbSourceGraphic" /></filter><filter
       id="mask-powermask-path-effect2498_inverse"
       inkscape:label="filtermask-powermask-path-effect2498"
       style="color-interpolation-filters:sRGB"
       height="100"
       width="100"
       x="-50"
       y="-50"><feColorMatrix
         id="mask-powermask-path-effect2498_primitive1"
         values="1"
         type="saturate"
         result="fbSourceGraphic" /><feColorMatrix
         id="mask-powermask-path-effect2498_primitive2"
         values="-1 0 0 0 1 0 -1 0 0 1 0 0 -1 0 1 0 0 0 1 0 "
         in="fbSourceGraphic" /></filter></defs><sodipodi:namedview
     id="namedview10"
     pagecolor="#ffffff"
     bordercolor="#000000"
     borderopacity="0.25"
     inkscape:showpageshadow="2"
     inkscape:pageopacity="0.0"
     inkscape:pagecheckerboard="0"
     inkscape:deskcolor="#d1d1d1"
     showgrid="false"
     inkscape:zoom="10.766271"
     inkscape:cx="41.564995"
     inkscape:cy="29.954661"
     inkscape:window-width="1500"
     inkscape:window-height="978"
     inkscape:window-x="-6"
     inkscape:window-y="-6"
     inkscape:window-maximized="1"
     inkscape:current-layer="svg8" /><path
     id="path2"
     d="M 16 1.5195312 C 14.338602 1.0743617 13.074106 1.8034554 12.628906 3.4648438 L 0.96484375 46.994141 C 0.60871011 48.323239 1.250721 49.918082 2.9121094 50.363281 L 15.537109 53.748047 L 16.123047 51.560547 L 16 51.560547 C 15.450001 51.560547 15 50.969638 15 50.248047 L 15 39.777344 C 15 39.042633 15.459532 38.439453 16.019531 38.439453 L 19.638672 38.439453 L 21.769531 30.488281 L 21.105469 30.310547 C 19.111771 29.776347 18.139629 28.091254 18.673828 26.097656 L 24.638672 3.8339844 L 16 1.5195312 z "
     style="fill:#8cfcc6;fill-opacity:1" /><path
     id="path4"
     style="fill:#ffabab;fill-opacity:1"
     d="M 32.945312 6.0605469 L 26.980469 28.322266 C 26.446269 30.315962 24.761274 31.290059 22.767578 30.755859 L 21.769531 30.488281 L 19.638672 38.439453 L 20 38.439453 L 24.240234 35.09375 C 24.580234 34.831353 25 35.14653 25 35.658203 L 25 54.341797 C 25 54.85347 24.570234 55.168647 24.240234 54.90625 L 20 51.560547 L 16.123047 51.560547 L 15.537109 53.748047 L 30.158203 57.664062 L 31.097656 54.160156 C 31.068392 54.163321 31.039121 54.169922 31.009766 54.169922 C 30.729766 54.169922 30.459765 54.026918 30.259766 53.738281 C 29.889766 53.200368 29.929844 52.374106 30.339844 51.888672 C 32.099842 49.828857 32.990234 47.611274 32.990234 45.289062 C 32.990234 41.248152 30.369844 38.125849 30.339844 38.099609 C 29.929844 37.614175 29.889766 36.787913 30.259766 36.25 C 30.629765 35.712087 31.259922 35.659097 31.669922 36.144531 C 31.766501 36.271241 33.545881 38.390613 34.462891 41.601562 L 36.390625 34.40625 L 35.726562 34.226562 C 33.732966 33.692364 32.758769 32.007268 33.292969 30.013672 L 39.257812 7.7519531 L 32.945312 6.0605469 z M 27.949219 39.755859 C 28.204217 39.73946 28.464922 39.851033 28.669922 40.09375 C 28.739922 40.185589 30.470703 42.25817 30.470703 45.144531 C 30.470703 46.889469 29.86992 48.489308 28.669922 49.90625 C 28.479922 50.129287 28.24 50.248047 28 50.248047 C 27.73 50.248047 27.459764 50.10309 27.259766 49.814453 C 26.889766 49.276541 26.92008 48.450277 27.330078 47.964844 C 28.090076 47.059576 28.470703 46.115398 28.470703 45.144531 C 28.470703 43.438954 27.340078 42.048276 27.330078 42.035156 C 26.92008 41.549723 26.889766 40.723459 27.259766 40.185547 C 27.444764 39.91659 27.694219 39.772259 27.949219 39.755859 z " /><path
     id="path6"
     d="M 47.234375 9.8886719 L 41.267578 32.150391 C 40.733379 34.143989 39.048286 35.118184 37.054688 34.583984 L 36.390625 34.40625 L 34.462891 41.601562 C 34.780221 42.712709 34.994858 43.953388 35 45.289062 C 35 48.385344 33.879685 51.259142 31.679688 53.84375 C 31.512927 54.039507 31.307644 54.137449 31.097656 54.160156 L 30.158203 57.664062 L 42.785156 61.048828 C 44.114255 61.404928 45.709097 60.762961 46.154297 59.101562 L 57.818359 15.574219 C 58.263559 13.91282 57.534445 12.648325 55.873047 12.203125 L 47.234375 9.8886719 z "
     style="fill:#9bf9f4;fill-opacity:1" /><g
     style="overflow:hidden;fill:#800000;fill-opacity:1"
     id="g130"
     transform="matrix(0.01953125,0,0,0.02562471,15,31.88015)" /></svg>
