<svg width="85" height="85" viewBox="0 0 85 85" fill="none" xmlns="http://www.w3.org/2000/svg">
<g clip-path="url(#clip0_1326_4153)">
<g filter="url(#filter0_d_1326_4153)">
<path d="M24.3843 64.5C23.9149 64.5 23.5309 64.3507 23.2323 64.052C22.9763 63.7533 22.8483 63.3907 22.8483 62.964V29.812L13.1203 37.3C12.7363 37.556 12.3523 37.6627 11.9683 37.62C11.5843 37.5347 11.2429 37.3 10.9443 36.916L8.25625 33.46C8.00025 33.076 7.89358 32.6707 7.93625 32.244C8.02158 31.8173 8.25625 31.476 8.64025 31.22L22.9763 20.148C23.2323 19.9347 23.4883 19.8067 23.7443 19.764C24.0003 19.7213 24.2776 19.7 24.5763 19.7H30.2083C30.6349 19.7 30.9976 19.8493 31.2963 20.148C31.5949 20.4467 31.7443 20.8093 31.7443 21.236V62.964C31.7443 63.3907 31.5949 63.7533 31.2963 64.052C30.9976 64.3507 30.6349 64.5 30.2083 64.5H24.3843ZM57.2733 65.14C54.2439 65.14 51.6626 64.692 49.5293 63.796C47.3959 62.9 45.6466 61.6627 44.2812 60.084C42.9159 58.5053 41.8919 56.692 41.2093 54.644C40.5266 52.5533 40.1213 50.3347 39.9933 47.988C39.9506 46.836 39.9079 45.5773 39.8653 44.212C39.8653 42.804 39.8653 41.396 39.8653 39.988C39.9079 38.58 39.9506 37.2787 39.9933 36.084C40.0786 33.7373 40.4839 31.54 41.2093 29.492C41.9346 27.4013 42.9799 25.588 44.3453 24.052C45.7533 22.516 47.5239 21.3 49.6573 20.404C51.7906 19.508 54.3293 19.06 57.2733 19.06C60.2599 19.06 62.8199 19.508 64.9533 20.404C67.0866 21.3 68.8359 22.516 70.2013 24.052C71.6093 25.588 72.6546 27.4013 73.3373 29.492C74.0626 31.54 74.4679 33.7373 74.5533 36.084C74.6386 37.2787 74.6813 38.58 74.6813 39.988C74.6813 41.396 74.6813 42.804 74.6813 44.212C74.6813 45.5773 74.6386 46.836 74.5533 47.988C74.4679 50.3347 74.0839 52.5533 73.4013 54.644C72.7186 56.692 71.6946 58.5053 70.3293 60.084C68.9639 61.6627 67.1933 62.9 65.0173 63.796C62.8839 64.692 60.3026 65.14 57.2733 65.14ZM57.2733 57.78C60.0466 57.78 62.0733 56.884 63.3533 55.092C64.6759 53.2573 65.3586 50.7827 65.4013 47.668C65.4866 46.4307 65.5293 45.1933 65.5293 43.956C65.5293 42.676 65.5293 41.396 65.5293 40.116C65.5293 38.836 65.4866 37.62 65.4013 36.468C65.3586 33.4387 64.6759 31.0067 63.3533 29.172C62.0733 27.2947 60.0466 26.356 57.2733 26.356C54.5426 26.356 52.5159 27.2947 51.1933 29.172C49.9133 31.0067 49.2306 33.4387 49.1453 36.468C49.1453 37.62 49.1239 38.836 49.0813 40.116C49.0813 41.396 49.0813 42.676 49.0813 43.956C49.1239 45.1933 49.1453 46.4307 49.1453 47.668C49.2306 50.7827 49.9346 53.2573 51.2573 55.092C52.5799 56.884 54.5853 57.78 57.2733 57.78Z" fill="#FFABAB"/>
</g>
</g>
<defs>
<filter id="filter0_d_1326_4153" x="-37.1279" y="-25.9399" width="156.809" height="136.08" filterUnits="userSpaceOnUse" color-interpolation-filters="sRGB">
<feFlood flood-opacity="0" result="BackgroundImageFix"/>
<feColorMatrix in="SourceAlpha" type="matrix" values="0 0 0 0 0 0 0 0 0 0 0 0 0 0 0 0 0 0 127 0" result="hardAlpha"/>
<feOffset/>
<feGaussianBlur stdDeviation="22.5"/>
<feComposite in2="hardAlpha" operator="out"/>
<feColorMatrix type="matrix" values="0 0 0 0 0.54902 0 0 0 0 0.988235 0 0 0 0 0.776471 0 0 0 0.45 0"/>
<feBlend mode="normal" in2="BackgroundImageFix" result="effect1_dropShadow_1326_4153"/>
<feBlend mode="normal" in="SourceGraphic" in2="effect1_dropShadow_1326_4153" result="shape"/>
</filter>
<clipPath id="clip0_1326_4153">
<rect width="85" height="85" rx="20" fill="white"/>
</clipPath>
</defs>
</svg>
