<svg width="85" height="85" viewBox="0 0 85 85" fill="none" xmlns="http://www.w3.org/2000/svg">
<g clip-path="url(#clip0_1326_4154)">
<g filter="url(#filter0_d_1326_4154)">
<path d="M25.5718 64.5C25.1024 64.5 24.7184 64.3507 24.4198 64.052C24.1638 63.7533 24.0358 63.3907 24.0358 62.964V29.812L14.3078 37.3C13.9238 37.556 13.5398 37.6627 13.1558 37.62C12.7718 37.5347 12.4304 37.3 12.1318 36.916L9.44375 33.46C9.18775 33.076 9.08108 32.6707 9.12375 32.244C9.20908 31.8173 9.44375 31.476 9.82775 31.22L24.1638 20.148C24.4198 19.9347 24.6758 19.8067 24.9318 19.764C25.1878 19.7213 25.4651 19.7 25.7638 19.7H31.3958C31.8224 19.7 32.1851 19.8493 32.4838 20.148C32.7824 20.4467 32.9318 20.8093 32.9318 21.236V62.964C32.9318 63.3907 32.7824 63.7533 32.4838 64.052C32.1851 64.3507 31.8224 64.5 31.3958 64.5H25.5718ZM57.0528 65.204C53.3834 65.204 50.2901 64.6067 47.7728 63.412C45.2554 62.1747 43.3354 60.5747 42.0128 58.612C40.7328 56.6493 40.0501 54.5587 39.9648 52.34C39.9221 51.956 40.0288 51.6573 40.2848 51.444C40.5834 51.188 40.9248 51.06 41.3088 51.06H47.2608C47.7301 51.06 48.1141 51.1667 48.4128 51.38C48.7541 51.5507 49.0101 51.8707 49.1808 52.34C49.6074 53.62 50.2048 54.6653 50.9728 55.476C51.7834 56.2867 52.7008 56.884 53.7248 57.268C54.7914 57.652 55.9008 57.844 57.0528 57.844C58.5888 57.844 59.9754 57.5453 61.2128 56.948C62.4928 56.308 63.5168 55.3693 64.2848 54.132C65.0528 52.8947 65.4368 51.38 65.4368 49.588C65.4368 48.0093 65.0741 46.644 64.3488 45.492C63.6234 44.34 62.6208 43.444 61.3408 42.804C60.1034 42.1213 58.6741 41.78 57.0528 41.78C55.8581 41.78 54.8768 41.9293 54.1088 42.228C53.3408 42.5267 52.6794 42.868 52.1248 43.252C51.6128 43.636 51.1434 43.9773 50.7168 44.276C50.3328 44.5747 49.8848 44.724 49.3728 44.724H43.4848C43.1008 44.724 42.7594 44.596 42.4608 44.34C42.2048 44.0413 42.0768 43.7 42.0768 43.316L44.3168 21.428C44.3594 20.8733 44.5514 20.4467 44.8928 20.148C45.2341 19.8493 45.6394 19.7 46.1088 19.7H70.1728C70.5994 19.7 70.9621 19.8493 71.2607 20.148C71.5594 20.4467 71.7088 20.8093 71.7088 21.236V25.524C71.7088 25.9507 71.5594 26.3133 71.2607 26.612C70.9621 26.9107 70.5994 27.06 70.1728 27.06H51.6768L50.6528 37.492C51.4208 36.98 52.4448 36.4893 53.7248 36.02C55.0048 35.5507 56.7754 35.316 59.0368 35.316C61.0848 35.316 63.0261 35.6573 64.8608 36.34C66.7381 36.98 68.4021 37.94 69.8528 39.22C71.3034 40.4573 72.4341 41.972 73.2448 43.764C74.0981 45.5133 74.5248 47.5187 74.5248 49.78C74.5248 52.8947 73.7994 55.604 72.3488 57.908C70.8981 60.212 68.8714 62.004 66.2688 63.284C63.6661 64.564 60.5941 65.204 57.0528 65.204Z" fill="#A0F9F4"/>
</g>
</g>
<defs>
<filter id="filter0_d_1326_4154" x="-35.9404" y="-25.3" width="155.465" height="135.504" filterUnits="userSpaceOnUse" color-interpolation-filters="sRGB">
<feFlood flood-opacity="0" result="BackgroundImageFix"/>
<feColorMatrix in="SourceAlpha" type="matrix" values="0 0 0 0 0 0 0 0 0 0 0 0 0 0 0 0 0 0 127 0" result="hardAlpha"/>
<feOffset/>
<feGaussianBlur stdDeviation="22.5"/>
<feComposite in2="hardAlpha" operator="out"/>
<feColorMatrix type="matrix" values="0 0 0 0 0.54902 0 0 0 0 0.988235 0 0 0 0 0.776471 0 0 0 0.45 0"/>
<feBlend mode="normal" in2="BackgroundImageFix" result="effect1_dropShadow_1326_4154"/>
<feBlend mode="normal" in="SourceGraphic" in2="effect1_dropShadow_1326_4154" result="shape"/>
</filter>
<clipPath id="clip0_1326_4154">
<rect width="85" height="85" rx="20" fill="white"/>
</clipPath>
</defs>
</svg>
