<svg width="85" height="85" viewBox="0 0 85 85" fill="none" xmlns="http://www.w3.org/2000/svg">
<g clip-path="url(#clip0_1326_4155)">
<g filter="url(#filter0_d_1326_4155)">
<path d="M6.07225 64.5C5.64558 64.5 5.28292 64.3507 4.98425 64.052C4.68558 63.7533 4.53625 63.3907 4.53625 62.964V59.7C4.53625 59.316 4.62158 58.868 4.79225 58.356C5.00558 57.8013 5.45358 57.2467 6.13625 56.692L16.2483 46.644C19.0643 44.4253 21.3256 42.548 23.0323 41.012C24.7816 39.4333 26.0403 38.004 26.8083 36.724C27.6189 35.4013 28.0243 34.1 28.0243 32.82C28.0243 30.9 27.4909 29.3427 26.4243 28.148C25.4003 26.9533 23.7576 26.356 21.4963 26.356C20.0029 26.356 18.7443 26.676 17.7203 27.316C16.6963 27.9133 15.8856 28.724 15.2883 29.748C14.7336 30.772 14.3496 31.9027 14.1363 33.14C14.0509 33.6947 13.8163 34.0787 13.4323 34.292C13.0483 34.5053 12.6643 34.612 12.2803 34.612H6.58425C6.20025 34.612 5.88025 34.484 5.62425 34.228C5.36825 33.972 5.24025 33.6733 5.24025 33.332C5.28292 31.4973 5.66692 29.7267 6.39225 28.02C7.11758 26.2707 8.16292 24.7347 9.52825 23.412C10.9363 22.0467 12.6429 20.9587 14.6483 20.148C16.6536 19.3373 18.9149 18.932 21.4323 18.932C24.9736 18.932 27.8963 19.5293 30.2003 20.724C32.5469 21.9187 34.2963 23.54 35.4482 25.588C36.6429 27.636 37.2403 29.94 37.2403 32.5C37.2403 34.5053 36.8563 36.3613 36.0883 38.068C35.3203 39.732 34.2109 41.3533 32.7603 42.932C31.3096 44.468 29.5603 46.0467 27.5123 47.668L18.4243 56.884H36.6643C37.1336 56.884 37.4963 57.0333 37.7523 57.332C38.0509 57.588 38.2003 57.9507 38.2003 58.42V62.964C38.2003 63.3907 38.0509 63.7533 37.7523 64.052C37.4963 64.3507 37.1336 64.5 36.6643 64.5H6.07225ZM62.2733 65.14C59.2439 65.14 56.6626 64.692 54.5293 63.796C52.3959 62.9 50.6466 61.6627 49.2812 60.084C47.9159 58.5053 46.8919 56.692 46.2093 54.644C45.5266 52.5533 45.1213 50.3347 44.9933 47.988C44.9506 46.836 44.9079 45.5773 44.8653 44.212C44.8653 42.804 44.8653 41.396 44.8653 39.988C44.9079 38.58 44.9506 37.2787 44.9933 36.084C45.0786 33.7373 45.4839 31.54 46.2093 29.492C46.9346 27.4013 47.9799 25.588 49.3453 24.052C50.7533 22.516 52.5239 21.3 54.6573 20.404C56.7906 19.508 59.3293 19.06 62.2733 19.06C65.2599 19.06 67.8199 19.508 69.9533 20.404C72.0866 21.3 73.8359 22.516 75.2013 24.052C76.6093 25.588 77.6546 27.4013 78.3373 29.492C79.0626 31.54 79.4679 33.7373 79.5533 36.084C79.6386 37.2787 79.6813 38.58 79.6813 39.988C79.6813 41.396 79.6813 42.804 79.6813 44.212C79.6813 45.5773 79.6386 46.836 79.5533 47.988C79.4679 50.3347 79.0839 52.5533 78.4013 54.644C77.7186 56.692 76.6946 58.5053 75.3293 60.084C73.9639 61.6627 72.1933 62.9 70.0173 63.796C67.8839 64.692 65.3026 65.14 62.2733 65.14ZM62.2733 57.78C65.0466 57.78 67.0733 56.884 68.3533 55.092C69.6759 53.2573 70.3586 50.7827 70.4013 47.668C70.4866 46.4307 70.5293 45.1933 70.5293 43.956C70.5293 42.676 70.5293 41.396 70.5293 40.116C70.5293 38.836 70.4866 37.62 70.4013 36.468C70.3586 33.4387 69.6759 31.0067 68.3533 29.172C67.0733 27.2947 65.0466 26.356 62.2733 26.356C59.5426 26.356 57.5159 27.2947 56.1933 29.172C54.9133 31.0067 54.2306 33.4387 54.1453 36.468C54.1453 37.62 54.1239 38.836 54.0813 40.116C54.0813 41.396 54.0813 42.676 54.0813 43.956C54.1239 45.1933 54.1453 46.4307 54.1453 47.668C54.2306 50.7827 54.9346 53.2573 56.2573 55.092C57.5799 56.884 59.5853 57.78 62.2733 57.78Z" fill="#DC9FF9"/>
</g>
</g>
<defs>
<filter id="filter0_d_1326_4155" x="-40.4639" y="-26.0681" width="165.145" height="136.208" filterUnits="userSpaceOnUse" color-interpolation-filters="sRGB">
<feFlood flood-opacity="0" result="BackgroundImageFix"/>
<feColorMatrix in="SourceAlpha" type="matrix" values="0 0 0 0 0 0 0 0 0 0 0 0 0 0 0 0 0 0 127 0" result="hardAlpha"/>
<feOffset/>
<feGaussianBlur stdDeviation="22.5"/>
<feComposite in2="hardAlpha" operator="out"/>
<feColorMatrix type="matrix" values="0 0 0 0 0.54902 0 0 0 0 0.988235 0 0 0 0 0.776471 0 0 0 0.45 0"/>
<feBlend mode="normal" in2="BackgroundImageFix" result="effect1_dropShadow_1326_4155"/>
<feBlend mode="normal" in="SourceGraphic" in2="effect1_dropShadow_1326_4155" result="shape"/>
</filter>
<clipPath id="clip0_1326_4155">
<rect width="85" height="85" rx="20" fill="white"/>
</clipPath>
</defs>
</svg>
