<svg width="85" height="85" viewBox="0 0 85 85" fill="none" xmlns="http://www.w3.org/2000/svg">
<g clip-path="url(#clip0_1326_4121)">
<g filter="url(#filter0_d_1326_4121)">
<path d="M7.25975 64.5C6.83308 64.5 6.47042 64.3507 6.17175 64.052C5.87308 63.7533 5.72375 63.3907 5.72375 62.964V59.7C5.72375 59.316 5.80908 58.868 5.97975 58.356C6.19308 57.8013 6.64108 57.2467 7.32375 56.692L17.4358 46.644C20.2518 44.4253 22.5131 42.548 24.2198 41.012C25.9691 39.4333 27.2278 38.004 27.9958 36.724C28.8064 35.4013 29.2118 34.1 29.2118 32.82C29.2118 30.9 28.6784 29.3427 27.6118 28.148C26.5878 26.9533 24.9451 26.356 22.6838 26.356C21.1904 26.356 19.9318 26.676 18.9078 27.316C17.8838 27.9133 17.0731 28.724 16.4758 29.748C15.9211 30.772 15.5371 31.9027 15.3238 33.14C15.2384 33.6947 15.0038 34.0787 14.6198 34.292C14.2358 34.5053 13.8518 34.612 13.4678 34.612H7.77175C7.38775 34.612 7.06775 34.484 6.81175 34.228C6.55575 33.972 6.42775 33.6733 6.42775 33.332C6.47042 31.4973 6.85442 29.7267 7.57975 28.02C8.30508 26.2707 9.35042 24.7347 10.7158 23.412C12.1238 22.0467 13.8304 20.9587 15.8358 20.148C17.8411 19.3373 20.1024 18.932 22.6198 18.932C26.1611 18.932 29.0838 19.5293 31.3878 20.724C33.7344 21.9187 35.4838 23.54 36.6357 25.588C37.8304 27.636 38.4278 29.94 38.4278 32.5C38.4278 34.5053 38.0438 36.3613 37.2758 38.068C36.5078 39.732 35.3984 41.3533 33.9478 42.932C32.4971 44.468 30.7478 46.0467 28.6998 47.668L19.6118 56.884H37.8518C38.3211 56.884 38.6838 57.0333 38.9398 57.332C39.2384 57.588 39.3878 57.9507 39.3878 58.42V62.964C39.3878 63.3907 39.2384 63.7533 38.9398 64.052C38.6838 64.3507 38.3211 64.5 37.8518 64.5H7.25975ZM62.0528 65.204C58.3834 65.204 55.2901 64.6067 52.7728 63.412C50.2554 62.1747 48.3354 60.5747 47.0128 58.612C45.7328 56.6493 45.0501 54.5587 44.9648 52.34C44.9221 51.956 45.0288 51.6573 45.2848 51.444C45.5834 51.188 45.9248 51.06 46.3088 51.06H52.2608C52.7301 51.06 53.1141 51.1667 53.4128 51.38C53.7541 51.5507 54.0101 51.8707 54.1808 52.34C54.6074 53.62 55.2048 54.6653 55.9728 55.476C56.7834 56.2867 57.7008 56.884 58.7248 57.268C59.7914 57.652 60.9008 57.844 62.0528 57.844C63.5888 57.844 64.9754 57.5453 66.2128 56.948C67.4928 56.308 68.5168 55.3693 69.2848 54.132C70.0528 52.8947 70.4368 51.38 70.4368 49.588C70.4368 48.0093 70.0741 46.644 69.3488 45.492C68.6234 44.34 67.6208 43.444 66.3408 42.804C65.1034 42.1213 63.6741 41.78 62.0528 41.78C60.8581 41.78 59.8768 41.9293 59.1088 42.228C58.3408 42.5267 57.6794 42.868 57.1248 43.252C56.6128 43.636 56.1434 43.9773 55.7168 44.276C55.3328 44.5747 54.8848 44.724 54.3728 44.724H48.4848C48.1008 44.724 47.7594 44.596 47.4608 44.34C47.2048 44.0413 47.0768 43.7 47.0768 43.316L49.3168 21.428C49.3594 20.8733 49.5514 20.4467 49.8928 20.148C50.2341 19.8493 50.6394 19.7 51.1088 19.7H75.1728C75.5994 19.7 75.9621 19.8493 76.2607 20.148C76.5594 20.4467 76.7088 20.8093 76.7088 21.236V25.524C76.7088 25.9507 76.5594 26.3133 76.2607 26.612C75.9621 26.9107 75.5994 27.06 75.1728 27.06H56.6768L55.6528 37.492C56.4208 36.98 57.4448 36.4893 58.7248 36.02C60.0048 35.5507 61.7754 35.316 64.0368 35.316C66.0848 35.316 68.0261 35.6573 69.8608 36.34C71.7381 36.98 73.4021 37.94 74.8528 39.22C76.3034 40.4573 77.4341 41.972 78.2448 43.764C79.0981 45.5133 79.5248 47.5187 79.5248 49.78C79.5248 52.8947 78.7994 55.604 77.3488 57.908C75.8981 60.212 73.8714 62.004 71.2688 63.284C68.6661 64.564 65.5941 65.204 62.0528 65.204Z" fill="#DD6D88"/>
</g>
</g>
<defs>
<filter id="filter0_d_1326_4121" x="-39.2764" y="-26.0681" width="163.801" height="136.272" filterUnits="userSpaceOnUse" color-interpolation-filters="sRGB">
<feFlood flood-opacity="0" result="BackgroundImageFix"/>
<feColorMatrix in="SourceAlpha" type="matrix" values="0 0 0 0 0 0 0 0 0 0 0 0 0 0 0 0 0 0 127 0" result="hardAlpha"/>
<feOffset/>
<feGaussianBlur stdDeviation="22.5"/>
<feComposite in2="hardAlpha" operator="out"/>
<feColorMatrix type="matrix" values="0 0 0 0 0.54902 0 0 0 0 0.988235 0 0 0 0 0.776471 0 0 0 0.45 0"/>
<feBlend mode="normal" in2="BackgroundImageFix" result="effect1_dropShadow_1326_4121"/>
<feBlend mode="normal" in="SourceGraphic" in2="effect1_dropShadow_1326_4121" result="shape"/>
</filter>
<clipPath id="clip0_1326_4121">
<rect width="85" height="85" rx="20" fill="white"/>
</clipPath>
</defs>
</svg>
