<svg width="85" height="85" viewBox="0 0 85 85" fill="none" xmlns="http://www.w3.org/2000/svg">
<g clip-path="url(#clip0_1326_4122)">
<g filter="url(#filter0_d_1326_4122)">
<path d="M21.2165 65.14C18.2298 65.14 15.6485 64.7773 13.4725 64.052C11.2965 63.3267 9.48317 62.388 8.0325 61.236C6.6245 60.0413 5.55783 58.7613 4.8325 57.396C4.10717 55.988 3.72317 54.6013 3.6805 53.236C3.6805 52.852 3.8085 52.5533 4.0645 52.34C4.36317 52.084 4.7045 51.956 5.0885 51.956H10.8485C11.2752 51.956 11.6378 52.0413 11.9365 52.212C12.2352 52.3827 12.4912 52.724 12.7045 53.236C13.0885 54.388 13.7072 55.3053 14.5605 55.988C15.4565 56.6707 16.4805 57.1613 17.6325 57.46C18.7845 57.716 20.0005 57.844 21.2805 57.844C23.8405 57.844 25.8672 57.2467 27.3605 56.052C28.8965 54.8147 29.6645 53.0653 29.6645 50.804C29.6645 48.5427 28.9605 46.9213 27.5525 45.94C26.1445 44.916 24.1818 44.404 21.6645 44.404H15.0725C14.6032 44.404 14.2192 44.276 13.9205 44.02C13.6218 43.7213 13.4725 43.3373 13.4725 42.868V40.18C13.4725 39.7533 13.5578 39.3907 13.7285 39.092C13.9418 38.7507 14.1552 38.4733 14.3685 38.26L25.8245 27.06H7.5205C7.05117 27.06 6.66717 26.9107 6.3685 26.612C6.1125 26.3133 5.9845 25.9507 5.9845 25.524V21.3C5.9845 20.8307 6.1125 20.4467 6.3685 20.148C6.66717 19.8493 7.05117 19.7 7.5205 19.7H34.9765C35.4458 19.7 35.8298 19.8493 36.1285 20.148C36.4272 20.4467 36.5765 20.8307 36.5765 21.3V25.14C36.5765 25.524 36.4912 25.8653 36.3205 26.164C36.1498 26.4627 35.9578 26.7187 35.7445 26.932L24.6725 38.324L25.4405 38.388C28.0432 38.6013 30.3472 39.1987 32.3525 40.18C34.4005 41.1187 35.9792 42.5053 37.0885 44.34C38.2405 46.1747 38.8165 48.4787 38.8165 51.252C38.8165 54.1533 38.0485 56.6493 36.5125 58.74C35.0192 60.788 32.9498 62.3667 30.3045 63.476C27.6592 64.5853 24.6298 65.14 21.2165 65.14ZM62.617 65.14C59.5877 65.14 57.0063 64.692 54.873 63.796C52.7397 62.9 50.9903 61.6627 49.625 60.084C48.2597 58.5053 47.2357 56.692 46.553 54.644C45.8703 52.5533 45.465 50.3347 45.337 47.988C45.2943 46.836 45.2517 45.5773 45.209 44.212C45.209 42.804 45.209 41.396 45.209 39.988C45.2517 38.58 45.2943 37.2787 45.337 36.084C45.4223 33.7373 45.8277 31.54 46.553 29.492C47.2783 27.4013 48.3237 25.588 49.689 24.052C51.097 22.516 52.8677 21.3 55.001 20.404C57.1343 19.508 59.673 19.06 62.617 19.06C65.6037 19.06 68.1637 19.508 70.297 20.404C72.4303 21.3 74.1797 22.516 75.545 24.052C76.953 25.588 77.9983 27.4013 78.681 29.492C79.4063 31.54 79.8117 33.7373 79.897 36.084C79.9823 37.2787 80.025 38.58 80.025 39.988C80.025 41.396 80.025 42.804 80.025 44.212C80.025 45.5773 79.9823 46.836 79.897 47.988C79.8117 50.3347 79.4277 52.5533 78.745 54.644C78.0623 56.692 77.0383 58.5053 75.673 60.084C74.3077 61.6627 72.537 62.9 70.361 63.796C68.2277 64.692 65.6463 65.14 62.617 65.14ZM62.617 57.78C65.3903 57.78 67.417 56.884 68.697 55.092C70.0197 53.2573 70.7023 50.7827 70.745 47.668C70.8303 46.4307 70.873 45.1933 70.873 43.956C70.873 42.676 70.873 41.396 70.873 40.116C70.873 38.836 70.8303 37.62 70.745 36.468C70.7023 33.4387 70.0197 31.0067 68.697 29.172C67.417 27.2947 65.3903 26.356 62.617 26.356C59.8863 26.356 57.8597 27.2947 56.537 29.172C55.257 31.0067 54.5743 33.4387 54.489 36.468C54.489 37.62 54.4677 38.836 54.425 40.116C54.425 41.396 54.425 42.676 54.425 43.956C54.4677 45.1933 54.489 46.4307 54.489 47.668C54.5743 50.7827 55.2783 53.2573 56.601 55.092C57.9237 56.884 59.929 57.78 62.617 57.78Z" fill="#F5E4AC"/>
</g>
</g>
<defs>
<filter id="filter0_d_1326_4122" x="-41.3193" y="-25.9399" width="166.344" height="136.08" filterUnits="userSpaceOnUse" color-interpolation-filters="sRGB">
<feFlood flood-opacity="0" result="BackgroundImageFix"/>
<feColorMatrix in="SourceAlpha" type="matrix" values="0 0 0 0 0 0 0 0 0 0 0 0 0 0 0 0 0 0 127 0" result="hardAlpha"/>
<feOffset/>
<feGaussianBlur stdDeviation="22.5"/>
<feComposite in2="hardAlpha" operator="out"/>
<feColorMatrix type="matrix" values="0 0 0 0 0.54902 0 0 0 0 0.988235 0 0 0 0 0.776471 0 0 0 0.45 0"/>
<feBlend mode="normal" in2="BackgroundImageFix" result="effect1_dropShadow_1326_4122"/>
<feBlend mode="normal" in="SourceGraphic" in2="effect1_dropShadow_1326_4122" result="shape"/>
</filter>
<clipPath id="clip0_1326_4122">
<rect width="85" height="85" rx="20" fill="white"/>
</clipPath>
</defs>
</svg>
