<svg width="85" height="85" viewBox="0 0 85 85" fill="none" xmlns="http://www.w3.org/2000/svg">
<g clip-path="url(#clip0_1326_4123)">
<g filter="url(#filter0_d_1326_4123)">
<path d="M22.404 65.14C19.4173 65.14 16.836 64.7773 14.66 64.052C12.484 63.3267 10.6707 62.388 9.22 61.236C7.812 60.0413 6.74533 58.7613 6.02 57.396C5.29467 55.988 4.91067 54.6013 4.868 53.236C4.868 52.852 4.996 52.5533 5.252 52.34C5.55067 52.084 5.892 51.956 6.276 51.956H12.036C12.4627 51.956 12.8253 52.0413 13.124 52.212C13.4227 52.3827 13.6787 52.724 13.892 53.236C14.276 54.388 14.8947 55.3053 15.748 55.988C16.644 56.6707 17.668 57.1613 18.82 57.46C19.972 57.716 21.188 57.844 22.468 57.844C25.028 57.844 27.0547 57.2467 28.548 56.052C30.084 54.8147 30.852 53.0653 30.852 50.804C30.852 48.5427 30.148 46.9213 28.74 45.94C27.332 44.916 25.3693 44.404 22.852 44.404H16.26C15.7907 44.404 15.4067 44.276 15.108 44.02C14.8093 43.7213 14.66 43.3373 14.66 42.868V40.18C14.66 39.7533 14.7453 39.3907 14.916 39.092C15.1293 38.7507 15.3427 38.4733 15.556 38.26L27.012 27.06H8.708C8.23867 27.06 7.85467 26.9107 7.556 26.612C7.3 26.3133 7.172 25.9507 7.172 25.524V21.3C7.172 20.8307 7.3 20.4467 7.556 20.148C7.85467 19.8493 8.23867 19.7 8.708 19.7H36.164C36.6333 19.7 37.0173 19.8493 37.316 20.148C37.6147 20.4467 37.764 20.8307 37.764 21.3V25.14C37.764 25.524 37.6787 25.8653 37.508 26.164C37.3373 26.4627 37.1453 26.7187 36.932 26.932L25.86 38.324L26.628 38.388C29.2307 38.6013 31.5347 39.1987 33.54 40.18C35.588 41.1187 37.1667 42.5053 38.276 44.34C39.428 46.1747 40.004 48.4787 40.004 51.252C40.004 54.1533 39.236 56.6493 37.7 58.74C36.2067 60.788 34.1373 62.3667 31.492 63.476C28.8467 64.5853 25.8173 65.14 22.404 65.14ZM62.3965 65.204C58.7272 65.204 55.6338 64.6067 53.1165 63.412C50.5992 62.1747 48.6792 60.5747 47.3565 58.612C46.0765 56.6493 45.3938 54.5587 45.3085 52.34C45.2658 51.956 45.3725 51.6573 45.6285 51.444C45.9272 51.188 46.2685 51.06 46.6525 51.06H52.6045C53.0738 51.06 53.4578 51.1667 53.7565 51.38C54.0978 51.5507 54.3538 51.8707 54.5245 52.34C54.9512 53.62 55.5485 54.6653 56.3165 55.476C57.1272 56.2867 58.0445 56.884 59.0685 57.268C60.1352 57.652 61.2445 57.844 62.3965 57.844C63.9325 57.844 65.3192 57.5453 66.5565 56.948C67.8365 56.308 68.8605 55.3693 69.6285 54.132C70.3965 52.8947 70.7805 51.38 70.7805 49.588C70.7805 48.0093 70.4178 46.644 69.6925 45.492C68.9672 44.34 67.9645 43.444 66.6845 42.804C65.4472 42.1213 64.0178 41.78 62.3965 41.78C61.2018 41.78 60.2205 41.9293 59.4525 42.228C58.6845 42.5267 58.0232 42.868 57.4685 43.252C56.9565 43.636 56.4872 43.9773 56.0605 44.276C55.6765 44.5747 55.2285 44.724 54.7165 44.724H48.8285C48.4445 44.724 48.1032 44.596 47.8045 44.34C47.5485 44.0413 47.4205 43.7 47.4205 43.316L49.6605 21.428C49.7032 20.8733 49.8952 20.4467 50.2365 20.148C50.5778 19.8493 50.9832 19.7 51.4525 19.7H75.5165C75.9432 19.7 76.3058 19.8493 76.6045 20.148C76.9032 20.4467 77.0525 20.8093 77.0525 21.236V25.524C77.0525 25.9507 76.9032 26.3133 76.6045 26.612C76.3058 26.9107 75.9432 27.06 75.5165 27.06H57.0205L55.9965 37.492C56.7645 36.98 57.7885 36.4893 59.0685 36.02C60.3485 35.5507 62.1192 35.316 64.3805 35.316C66.4285 35.316 68.3698 35.6573 70.2045 36.34C72.0818 36.98 73.7458 37.94 75.1965 39.22C76.6472 40.4573 77.7778 41.972 78.5885 43.764C79.4418 45.5133 79.8685 47.5187 79.8685 49.78C79.8685 52.8947 79.1432 55.604 77.6925 57.908C76.2418 60.212 74.2152 62.004 71.6125 63.284C69.0098 64.564 65.9378 65.204 62.3965 65.204Z" fill="#A0F9F4"/>
</g>
</g>
<defs>
<filter id="filter0_d_1326_4123" x="-40.1318" y="-25.3" width="165" height="135.504" filterUnits="userSpaceOnUse" color-interpolation-filters="sRGB">
<feFlood flood-opacity="0" result="BackgroundImageFix"/>
<feColorMatrix in="SourceAlpha" type="matrix" values="0 0 0 0 0 0 0 0 0 0 0 0 0 0 0 0 0 0 127 0" result="hardAlpha"/>
<feOffset/>
<feGaussianBlur stdDeviation="22.5"/>
<feComposite in2="hardAlpha" operator="out"/>
<feColorMatrix type="matrix" values="0 0 0 0 0.54902 0 0 0 0 0.988235 0 0 0 0 0.776471 0 0 0 0.45 0"/>
<feBlend mode="normal" in2="BackgroundImageFix" result="effect1_dropShadow_1326_4123"/>
<feBlend mode="normal" in="SourceGraphic" in2="effect1_dropShadow_1326_4123" result="shape"/>
</filter>
<clipPath id="clip0_1326_4123">
<rect width="85" height="85" rx="20" fill="white"/>
</clipPath>
</defs>
</svg>
