<svg width="85" height="85" viewBox="0 0 85 85" fill="none" xmlns="http://www.w3.org/2000/svg">
<g clip-path="url(#clip0_1326_4124)">
<g filter="url(#filter0_d_1326_4124)">
<path d="M25.8738 64.5C25.4471 64.5 25.0844 64.3507 24.7858 64.052C24.4871 63.7533 24.3378 63.3907 24.3378 62.964V54.772H4.04975C3.58042 54.772 3.19642 54.6227 2.89775 54.324C2.64175 54.0253 2.51375 53.6627 2.51375 53.236V48.884C2.51375 48.628 2.55642 48.3293 2.64175 47.988C2.76975 47.604 2.96175 47.2627 3.21775 46.964L22.0978 20.788C22.6524 20.0627 23.4418 19.7 24.4658 19.7H31.4418C31.8684 19.7 32.2311 19.8493 32.5298 20.148C32.8284 20.4467 32.9778 20.8093 32.9778 21.236V47.22H38.6738C39.1858 47.22 39.5698 47.3693 39.8258 47.668C40.1244 47.924 40.2738 48.2867 40.2738 48.756V53.236C40.2738 53.6627 40.1244 54.0253 39.8258 54.324C39.5271 54.6227 39.1644 54.772 38.7378 54.772H32.9778V62.964C32.9778 63.3907 32.8284 63.7533 32.5298 64.052C32.2311 64.3507 31.8684 64.5 31.4418 64.5H25.8738ZM11.4098 47.476H24.5298V28.98L11.4098 47.476ZM63.3358 65.14C60.3064 65.14 57.7251 64.692 55.5918 63.796C53.4584 62.9 51.7091 61.6627 50.3438 60.084C48.9784 58.5053 47.9544 56.692 47.2718 54.644C46.5891 52.5533 46.1838 50.3347 46.0558 47.988C46.0131 46.836 45.9704 45.5773 45.9278 44.212C45.9278 42.804 45.9278 41.396 45.9278 39.988C45.9704 38.58 46.0131 37.2787 46.0558 36.084C46.1411 33.7373 46.5464 31.54 47.2718 29.492C47.9971 27.4013 49.0424 25.588 50.4078 24.052C51.8158 22.516 53.5864 21.3 55.7198 20.404C57.8531 19.508 60.3918 19.06 63.3358 19.06C66.3224 19.06 68.8824 19.508 71.0158 20.404C73.1491 21.3 74.8984 22.516 76.2638 24.052C77.6718 25.588 78.7171 27.4013 79.3998 29.492C80.1251 31.54 80.5304 33.7373 80.6158 36.084C80.7011 37.2787 80.7438 38.58 80.7438 39.988C80.7438 41.396 80.7438 42.804 80.7438 44.212C80.7438 45.5773 80.7011 46.836 80.6158 47.988C80.5304 50.3347 80.1464 52.5533 79.4638 54.644C78.7811 56.692 77.7571 58.5053 76.3918 60.084C75.0264 61.6627 73.2558 62.9 71.0798 63.796C68.9464 64.692 66.3651 65.14 63.3358 65.14ZM63.3358 57.78C66.1091 57.78 68.1358 56.884 69.4158 55.092C70.7384 53.2573 71.4211 50.7827 71.4638 47.668C71.5491 46.4307 71.5918 45.1933 71.5918 43.956C71.5918 42.676 71.5918 41.396 71.5918 40.116C71.5918 38.836 71.5491 37.62 71.4638 36.468C71.4211 33.4387 70.7384 31.0067 69.4158 29.172C68.1358 27.2947 66.1091 26.356 63.3358 26.356C60.6051 26.356 58.5784 27.2947 57.2558 29.172C55.9758 31.0067 55.2931 33.4387 55.2078 36.468C55.2078 37.62 55.1864 38.836 55.1438 40.116C55.1438 41.396 55.1438 42.676 55.1438 43.956C55.1864 45.1933 55.2078 46.4307 55.2078 47.668C55.2931 50.7827 55.9971 53.2573 57.3198 55.092C58.6424 56.884 60.6478 57.78 63.3358 57.78Z" fill="#DC9FF9"/>
</g>
</g>
<defs>
<filter id="filter0_d_1326_4124" x="-42.4863" y="-25.9399" width="168.23" height="136.08" filterUnits="userSpaceOnUse" color-interpolation-filters="sRGB">
<feFlood flood-opacity="0" result="BackgroundImageFix"/>
<feColorMatrix in="SourceAlpha" type="matrix" values="0 0 0 0 0 0 0 0 0 0 0 0 0 0 0 0 0 0 127 0" result="hardAlpha"/>
<feOffset/>
<feGaussianBlur stdDeviation="22.5"/>
<feComposite in2="hardAlpha" operator="out"/>
<feColorMatrix type="matrix" values="0 0 0 0 0.54902 0 0 0 0 0.988235 0 0 0 0 0.776471 0 0 0 0.45 0"/>
<feBlend mode="normal" in2="BackgroundImageFix" result="effect1_dropShadow_1326_4124"/>
<feBlend mode="normal" in="SourceGraphic" in2="effect1_dropShadow_1326_4124" result="shape"/>
</filter>
<clipPath id="clip0_1326_4124">
<rect width="85" height="85" rx="20" fill="white"/>
</clipPath>
</defs>
</svg>
