<svg width="85" height="85" viewBox="0 0 85 85" fill="none" xmlns="http://www.w3.org/2000/svg">
<g clip-path="url(#clip0_1326_4125)">
<g filter="url(#filter0_d_1326_4125)">
<path d="M27.0613 64.5C26.6346 64.5 26.2719 64.3507 25.9733 64.052C25.6746 63.7533 25.5253 63.3907 25.5253 62.964V54.772H5.23725C4.76792 54.772 4.38392 54.6227 4.08525 54.324C3.82925 54.0253 3.70125 53.6627 3.70125 53.236V48.884C3.70125 48.628 3.74392 48.3293 3.82925 47.988C3.95725 47.604 4.14925 47.2627 4.40525 46.964L23.2853 20.788C23.8399 20.0627 24.6293 19.7 25.6533 19.7H32.6293C33.0559 19.7 33.4186 19.8493 33.7173 20.148C34.0159 20.4467 34.1653 20.8093 34.1653 21.236V47.22H39.8613C40.3733 47.22 40.7573 47.3693 41.0133 47.668C41.3119 47.924 41.4613 48.2867 41.4613 48.756V53.236C41.4613 53.6627 41.3119 54.0253 41.0133 54.324C40.7146 54.6227 40.3519 54.772 39.9253 54.772H34.1653V62.964C34.1653 63.3907 34.0159 63.7533 33.7173 64.052C33.4186 64.3507 33.0559 64.5 32.6293 64.5H27.0613ZM12.5973 47.476H25.7173V28.98L12.5973 47.476ZM63.1153 65.204C59.4459 65.204 56.3526 64.6067 53.8353 63.412C51.3179 62.1747 49.3979 60.5747 48.0753 58.612C46.7953 56.6493 46.1126 54.5587 46.0273 52.34C45.9846 51.956 46.0913 51.6573 46.3473 51.444C46.6459 51.188 46.9873 51.06 47.3713 51.06H53.3233C53.7926 51.06 54.1766 51.1667 54.4753 51.38C54.8166 51.5507 55.0726 51.8707 55.2433 52.34C55.6699 53.62 56.2673 54.6653 57.0353 55.476C57.8459 56.2867 58.7633 56.884 59.7873 57.268C60.8539 57.652 61.9633 57.844 63.1153 57.844C64.6513 57.844 66.0379 57.5453 67.2753 56.948C68.5553 56.308 69.5793 55.3693 70.3473 54.132C71.1153 52.8947 71.4993 51.38 71.4993 49.588C71.4993 48.0093 71.1366 46.644 70.4113 45.492C69.6859 44.34 68.6833 43.444 67.4033 42.804C66.1659 42.1213 64.7366 41.78 63.1153 41.78C61.9206 41.78 60.9393 41.9293 60.1713 42.228C59.4033 42.5267 58.7419 42.868 58.1873 43.252C57.6753 43.636 57.2059 43.9773 56.7793 44.276C56.3953 44.5747 55.9473 44.724 55.4353 44.724H49.5473C49.1633 44.724 48.8219 44.596 48.5233 44.34C48.2673 44.0413 48.1393 43.7 48.1393 43.316L50.3793 21.428C50.4219 20.8733 50.6139 20.4467 50.9553 20.148C51.2966 19.8493 51.7019 19.7 52.1713 19.7H76.2353C76.6619 19.7 77.0246 19.8493 77.3232 20.148C77.6219 20.4467 77.7713 20.8093 77.7713 21.236V25.524C77.7713 25.9507 77.6219 26.3133 77.3232 26.612C77.0246 26.9107 76.6619 27.06 76.2353 27.06H57.7393L56.7153 37.492C57.4833 36.98 58.5073 36.4893 59.7873 36.02C61.0673 35.5507 62.8379 35.316 65.0993 35.316C67.1473 35.316 69.0886 35.6573 70.9233 36.34C72.8006 36.98 74.4646 37.94 75.9153 39.22C77.3659 40.4573 78.4966 41.972 79.3073 43.764C80.1606 45.5133 80.5873 47.5187 80.5873 49.78C80.5873 52.8947 79.8619 55.604 78.4113 57.908C76.9606 60.212 74.9339 62.004 72.3313 63.284C69.7286 64.564 66.6566 65.204 63.1153 65.204Z" fill="#8CFCC6"/>
</g>
</g>
<defs>
<filter id="filter0_d_1326_4125" x="-41.2988" y="-25.3" width="166.886" height="135.504" filterUnits="userSpaceOnUse" color-interpolation-filters="sRGB">
<feFlood flood-opacity="0" result="BackgroundImageFix"/>
<feColorMatrix in="SourceAlpha" type="matrix" values="0 0 0 0 0 0 0 0 0 0 0 0 0 0 0 0 0 0 127 0" result="hardAlpha"/>
<feOffset/>
<feGaussianBlur stdDeviation="22.5"/>
<feComposite in2="hardAlpha" operator="out"/>
<feColorMatrix type="matrix" values="0 0 0 0 0.54902 0 0 0 0 0.988235 0 0 0 0 0.776471 0 0 0 0.45 0"/>
<feBlend mode="normal" in2="BackgroundImageFix" result="effect1_dropShadow_1326_4125"/>
<feBlend mode="normal" in="SourceGraphic" in2="effect1_dropShadow_1326_4125" result="shape"/>
</filter>
<clipPath id="clip0_1326_4125">
<rect width="85" height="85" rx="20" fill="white"/>
</clipPath>
</defs>
</svg>
