<svg width="85" height="85" viewBox="0 0 85 85" fill="none" xmlns="http://www.w3.org/2000/svg">
<g clip-path="url(#clip0_1326_4152)">
<g filter="url(#filter0_d_1326_4152)">
<path d="M42.2403 65.204C38.5709 65.204 35.4776 64.6067 32.9603 63.412C30.4429 62.1747 28.5229 60.5747 27.2003 58.612C25.9203 56.6493 25.2376 54.5587 25.1523 52.34C25.1096 51.956 25.2163 51.6573 25.4723 51.444C25.7709 51.188 26.1123 51.06 26.4963 51.06H32.4483C32.9176 51.06 33.3016 51.1667 33.6003 51.38C33.9416 51.5507 34.1976 51.8707 34.3683 52.34C34.7949 53.62 35.3923 54.6653 36.1603 55.476C36.9709 56.2867 37.8883 56.884 38.9123 57.268C39.9789 57.652 41.0883 57.844 42.2403 57.844C43.7763 57.844 45.1629 57.5453 46.4003 56.948C47.6803 56.308 48.7043 55.3693 49.4723 54.132C50.2403 52.8947 50.6243 51.38 50.6243 49.588C50.6243 48.0093 50.2616 46.644 49.5363 45.492C48.8109 44.34 47.8083 43.444 46.5283 42.804C45.2909 42.1213 43.8616 41.78 42.2403 41.78C41.0456 41.78 40.0643 41.9293 39.2963 42.228C38.5283 42.5267 37.8669 42.868 37.3123 43.252C36.8003 43.636 36.3309 43.9773 35.9043 44.276C35.5203 44.5747 35.0723 44.724 34.5603 44.724H28.6723C28.2883 44.724 27.9469 44.596 27.6483 44.34C27.3923 44.0413 27.2643 43.7 27.2643 43.316L29.5043 21.428C29.5469 20.8733 29.7389 20.4467 30.0803 20.148C30.4216 19.8493 30.8269 19.7 31.2963 19.7H55.3603C55.7869 19.7 56.1496 19.8493 56.4482 20.148C56.7469 20.4467 56.8963 20.8093 56.8963 21.236V25.524C56.8963 25.9507 56.7469 26.3133 56.4482 26.612C56.1496 26.9107 55.7869 27.06 55.3603 27.06H36.8643L35.8403 37.492C36.6083 36.98 37.6323 36.4893 38.9123 36.02C40.1923 35.5507 41.9629 35.316 44.2243 35.316C46.2723 35.316 48.2136 35.6573 50.0483 36.34C51.9256 36.98 53.5896 37.94 55.0403 39.22C56.4909 40.4573 57.6216 41.972 58.4323 43.764C59.2856 45.5133 59.7123 47.5187 59.7123 49.78C59.7123 52.8947 58.9869 55.604 57.5363 57.908C56.0856 60.212 54.0589 62.004 51.4563 63.284C48.8536 64.564 45.7816 65.204 42.2403 65.204Z" fill="#F5E4AC"/>
</g>
</g>
<defs>
<filter id="filter0_d_1326_4152" x="-19.9116" y="-25.3" width="124.624" height="135.504" filterUnits="userSpaceOnUse" color-interpolation-filters="sRGB">
<feFlood flood-opacity="0" result="BackgroundImageFix"/>
<feColorMatrix in="SourceAlpha" type="matrix" values="0 0 0 0 0 0 0 0 0 0 0 0 0 0 0 0 0 0 127 0" result="hardAlpha"/>
<feOffset/>
<feGaussianBlur stdDeviation="22.5"/>
<feComposite in2="hardAlpha" operator="out"/>
<feColorMatrix type="matrix" values="0 0 0 0 0.54902 0 0 0 0 0.988235 0 0 0 0 0.776471 0 0 0 0.45 0"/>
<feBlend mode="normal" in2="BackgroundImageFix" result="effect1_dropShadow_1326_4152"/>
<feBlend mode="normal" in="SourceGraphic" in2="effect1_dropShadow_1326_4152" result="shape"/>
</filter>
<clipPath id="clip0_1326_4152">
<rect width="85" height="85" rx="20" fill="white"/>
</clipPath>
</defs>
</svg>
